<svg xmlns="http://www.w3.org/2000/svg" viewBox="0 0 454 69.18"><title>android-logo</title><path d="M50.75,243.63a18.11,18.11,0,0,1,14.46,7v-6.08h9.9v45.12H68a2.82,2.82,0,0,1-2.83-2.83v-3.25c-2.52,3.67-7.91,7-14.41,7C38.38,290.59,29,280,29,267.11s9.38-23.48,21.75-23.48m1.78,9c-8,0-13.47,6.34-13.47,14.46s5.4,14.46,13.47,14.46S66,275.23,66,267.11s-5.4-14.46-13.47-14.46m33.85-8.12h10v6.13c2.73-4.51,7.86-7,13.73-7,10.48,0,17.24,7.39,17.24,18.87v27.15h-7.13a2.82,2.82,0,0,1-2.83-2.83V264.12c0-7.13-3.62-11.48-9.38-11.48-6.6,0-11.63,5.14-11.63,14.78v22.22H89.22a2.82,2.82,0,0,1-2.83-2.83Zm70.54-.89a18.11,18.11,0,0,1,14.46,7V222h9.9V289.7h-7.13a2.82,2.82,0,0,1-2.83-2.83v-3.25c-2.52,3.62-8,7-14.46,7-12.37,0-21.75-10.59-21.75-23.48s9.43-23.48,21.8-23.48m1.78,9c-8,0-13.47,6.34-13.47,14.46s5.4,14.46,13.47,14.46,13.47-6.34,13.47-14.46-5.45-14.46-13.47-14.46m33.85-8.12h9.9v8a12.71,12.71,0,0,1,11.9-8.49,20.19,20.19,0,0,1,3.88.37v10.22a16,16,0,0,0-5-.84c-5.71,0-10.85,4.77-10.85,13.84v22h-7.13a2.82,2.82,0,0,1-2.83-2.83V244.52Zm52.51,46.07a23.48,23.48,0,1,1,23.64-23.48,23.28,23.28,0,0,1-23.64,23.48m0-9.22c8,0,13.52-6.24,13.52-14.25s-5.61-14.25-13.52-14.25-13.63,6.24-13.63,14.25,5.61,14.25,13.63,14.25m36.63-46.69a6.63,6.63,0,1,1,0-13.26,6.63,6.63,0,0,1,0,13.26m-4.93,9.85h9.9v45.12h-7.07a2.82,2.82,0,0,1-2.83-2.83V244.52Zm39.83-.89a18.11,18.11,0,0,1,14.46,7V222H341V289.7h-7.13a2.82,2.82,0,0,1-2.83-2.83v-3.25c-2.52,3.62-8,7-14.46,7-12.37,0-21.75-10.59-21.75-23.48s9.43-23.48,21.8-23.48m1.83,9c-8,0-13.47,6.34-13.47,14.46s5.4,14.46,13.47,14.46,13.47-6.34,13.47-14.46-5.45-14.46-13.47-14.46" transform="translate(-29 -221.41)"/><path d="M450.56,272.61a5,5,0,1,1,5-5,5,5,0,0,1-5,5m-55.39,0a5,5,0,1,1,5-5,5,5,0,0,1-5,5m57.18-30.19,10.06-17.35a2.08,2.08,0,0,0-3.62-2l-10.17,17.56A61.41,61.41,0,0,0,422.89,235a62.44,62.44,0,0,0-25.78,5.5L386.94,223a2.08,2.08,0,0,0-3.62,2l10,17.35a59.28,59.28,0,0,0-30.71,47.38H483a59,59,0,0,0-30.66-47.32" transform="translate(-29 -221.41)" style="fill:#3ddc84"/></svg>